<?xml version="1.0" encoding="utf-8"?>
<!-- Generator: Adobe Illustrator 18.0.0, SVG Export Plug-In . SVG Version: 6.00 Build 0)  -->
<!DOCTYPE svg PUBLIC "-//W3C//DTD SVG 1.1//EN" "http://www.w3.org/Graphics/SVG/1.1/DTD/svg11.dtd">
<svg version="1.1" id="Layer_1" xmlns="http://www.w3.org/2000/svg" xmlns:xlink="http://www.w3.org/1999/xlink" x="0px" y="0px"
	 viewBox="-97.8 -108.9 958.3 885.2" enable-background="new -97.8 -108.9 958.3 885.2" xml:space="preserve">
<path fill="#FF4D91" d="M177.7,15.3c184.3-42.5,232.6-159,370.6-114s351,222,306,288s-168,160.7-165,227.4s45,44.4,24,186
	s-155,159.7-284.5,171.7c-129.5,12-108.1-33-241.8-66S-144.7,567.2-87.7,435.2s-18-214.9,42-306.9S101,33,177.7,15.3z"/>
<title>space-explorer-observation-travel-astronaut</title>
<path fill="#1F4450" d="M232.5,114c-61.6,0-111.6,50-111.6,111.6s50,111.6,111.6,111.6c61.6-0.1,111.5-50,111.6-111.6
	C344.1,164,294.2,114,232.5,114z M223.2,179.1c-32,0-63.2,15.9-81.7,27.4c9.1-43,47-73.9,91-73.9c45.1,0.1,83.6,32.4,91.5,76.8
	C301.4,198.1,258.1,179.1,223.2,179.1z"/>
<path fill="#1F4450" d="M232.5,318.6c-49.6-0.1-90.4-39-92.8-88.5c11.4-8.2,47.8-32.4,83.5-32.4c36.5,0,86.4,25,102,33.3
	C322.4,280.1,281.8,318.6,232.5,318.6z"/>
<path fill="#E5E5E5" d="M232.5,318.6c-49.6-0.1-90.4-39-92.8-88.5c11.4-8.2,47.8-32.4,83.5-32.4c36.5,0,86.4,25,102,33.3
	C322.4,280.1,281.8,318.6,232.5,318.6z"/>
<path fill="#1F4450" d="M297.6,393h-55.8c-15.4,0-27.9,12.5-27.9,27.9v27.9c0,15.4,12.5,27.9,27.9,27.9h55.8
	c15.4,0,27.9-12.5,27.9-27.9v-27.9C325.5,405.5,313.1,393,297.6,393z M306.9,448.8c0,5.1-4.2,9.3-9.3,9.3h-55.8
	c-5.1,0-9.3-4.2-9.3-9.3v-27.9c0-5.1,4.2-9.3,9.3-9.3h55.8c5.1,0,9.3,4.2,9.3,9.3V448.8z"/>
<path fill="#1F4450" d="M558.1,141.9c-0.1,52.9-40.4,97-93,101.8v-18.7c42.3-4.8,74.4-40.6,74.4-83.2V67.5h-18.6v74.4
	c-0.1,32.3-23.8,59.7-55.8,64.4v-17.9c0-15.4-12.5-27.9-27.9-27.9h-24.1c-25.2-51.3-81-83.7-152.6-83.7C161.8,76.8,93,138,93,225.6
	c-0.9,45.6,20.4,88.7,57.2,115.6l-80.9,16.5C48,361.6,32.5,380.3,32.7,402c0.2,27.8,18.8,43.7,51.5,43.7l0,0l89.6-5
	c3.2,11.2,7.6,21.9,13.2,32.1l27.6,50.6c7,12.8,15.7,24.5,26,34.8l48.3,48.3c20.8,20.7,52.8,25,78.3,10.5l24.3-14
	c17,9.4,37.4,10.6,55.4,3.3l51-20.4c5.6,16.1,23.2,24.7,39.3,19.1c12.4-4.3,20.7-15.9,20.8-29V514c0-10.3-8.3-18.6-18.6-18.6h-37.2
	v0.2c-0.7-0.1-1.5-0.1-2.2,0l-50.7,12.5l-64.7-64.7c-3.3-3.3-6-7-8-11.2c-0.3-0.7-0.6-1.4-0.9-2.1h61.5c15.4,0,27.9-12.5,27.9-27.9
	v-26.1l37.8-8.9c24.3-4.4,40.3-27.7,35.9-51.9c-4.4-24.3-27.7-40.3-51.9-35.9l0,0l-21.7,3.9v-20.9c62.9-4.9,111.5-57.3,111.6-120.4
	V67.5h-18.6V141.9z M111.6,225.6c0-76.7,61.2-130.2,148.8-130.2s148.8,53.5,148.8,130.2s-61.2,130.2-148.8,130.2
	S111.6,302.3,111.6,225.6z M372.1,379.1v-38.9c9.8-7.4,18.6-16.1,26.2-25.7l14.2-2.6l-28.7,64.5L372.1,379.1z M83.7,427.2
	c-28.8,0-32.3-14.4-32.4-25.3c-0.1-12.7,9-23.7,21.6-25.8l43.3-8.8l28.3,56.6L83.7,427.2z M164.7,422.6l-29.7-59.3l32.3-6.6v39.7
	c0,8.7,0.8,17.4,2.2,25.9L164.7,422.6z M539.5,576c0,6.8-5.5,12.3-12.3,12.3c-5.3,0-10-3.4-11.7-8.4l-3.9-11.7V514h27.9V576z
	 M458.5,543.6l13.2-13.2l-6.9-6.9l28.3-7V568l-53,21.2c-17.3,6.9-37,2.9-50.2-10.3l-67-67L309.7,525l65.8,65.8l-17.5,10
	c-18.2,10.4-41.1,7.3-55.9-7.4l-48.3-48.3c-9-9.1-16.7-19.3-22.9-30.6l-27.6-50.6C192,443.2,186,420,186,396.4v-35.6
	c23.7,9.2,49,13.8,74.4,13.6c32.4,0.5,64.4-7.2,93-22.3v61c0,16.3,6.5,32,18,43.5L458.5,543.6z M446.5,402.3c0,5.1-4.2,9.3-9.3,9.3
	h-65.1v-13.4l74.4-17.7V402.3z M490.2,297.7c14.2-2.4,27.7,7.1,30.1,21.2c2.4,14.2-7.1,27.7-21.2,30.1l-92.5,21.9l28.1-63.1
	L490.2,297.7z M411.9,293c10.6-20.9,16.1-44,15.9-67.4c0.1-15.8-2.3-31.5-7.1-46.5h16.4c5.1,0,9.3,4.2,9.3,9.3v98.3L411.9,293z"/>
<rect x="362.7" y="207" fill="#1F4450" width="18.6" height="46.5"/>
<rect x="37.2" y="67.5" fill="#1F4450" width="18.6" height="18.6"/>
<rect x="18.6" y="86.1" fill="#1F4450" width="18.6" height="18.6"/>
<rect x="55.8" y="86.1" fill="#1F4450" width="18.6" height="18.6"/>
<rect x="37.2" y="104.7" fill="#1F4450" width="18.6" height="18.6"/>
<rect x="18.6" y="244.2" fill="#1F4450" width="18.6" height="18.6"/>
<rect x="539.5" y="393" fill="#1F4450" width="18.6" height="18.6"/>
<rect x="698.5" y="151.2" fill="#1F4450" width="18.6" height="18.6"/>
<rect x="679.9" y="169.8" fill="#1F4450" width="18.6" height="18.6"/>
<rect x="717.1" y="169.8" fill="#1F4450" width="18.6" height="18.6"/>
<rect x="698.5" y="188.4" fill="#1F4450" width="18.6" height="18.6"/>
<rect x="416.5" y="-12.3" fill="#1F4450" width="18.6" height="18.6"/>
<rect x="397.9" y="6.3" fill="#1F4450" width="18.6" height="18.6"/>
<rect x="435.1" y="6.3" fill="#1F4450" width="18.6" height="18.6"/>
<rect x="416.5" y="24.9" fill="#1F4450" width="18.6" height="18.6"/>
<rect x="130.2" y="504.7" fill="#1F4450" width="18.6" height="18.6"/>
<rect x="111.6" y="523.3" fill="#1F4450" width="18.6" height="18.6"/>
<rect x="148.8" y="523.3" fill="#1F4450" width="18.6" height="18.6"/>
<rect x="130.2" y="541.9" fill="#1F4450" width="18.6" height="18.6"/>
<rect x="55.8" y="579.1" fill="#1F4450" width="18.6" height="18.6"/>
<rect x="195.3" y="607" fill="#1F4450" width="18.6" height="18.6"/>
<rect x="492.3" y="679" fill="#1F4450" width="18.6" height="18.6"/>
<rect x="643.8" y="281.5" fill="#1F4450" width="18.6" height="18.6"/>
<rect x="18.6" y="458.2" fill="#1F4450" width="18.6" height="18.6"/>
</svg>
