<?xml version="1.0" encoding="utf-8"?>
<!-- Generator: Adobe Illustrator 22.0.1, SVG Export Plug-In . SVG Version: 6.00 Build 0)  -->
<svg version="1.1" id="Layer_1" xmlns="http://www.w3.org/2000/svg" xmlns:xlink="http://www.w3.org/1999/xlink" x="0px" y="0px"
	 viewBox="0 0 587.1 602.1" style="enable-background:new 0 0 587.1 602.1;" xml:space="preserve">
<style type="text/css">
	.st0{fill:#FF4D91;}
	.st1{fill:#1F4450;}
	.st2{fill:#E5E5E5;}
</style>
<path class="st0" d="M61.7,330.6c-12.6,2.1-21.7,13.1-21.6,25.8c0.1,10.9,3.6,25.3,32.4,25.3l60.8-3.3L105,321.8L61.7,330.6z"/>
<path class="st0" d="M360.9,294.7v38.9l11.7-2.7l28.7-64.5l-14.2,2.6C379.5,278.6,370.7,287.3,360.9,294.7z"/>
<path class="st0" d="M156.1,311.2l-32.3,6.6l29.7,59.3l4.8-0.3c-1.4-8.5-2.2-17.2-2.2-25.9V311.2z"/>
<path class="st0" d="M516,542.8c6.8,0,12.3-5.5,12.3-12.3v-62h-27.9v54.2l3.9,11.7C506,539.4,510.7,542.8,516,542.8z"/>
<ellipse class="st0" cx="249.2" cy="180.1" rx="157.8" ry="141.7"/>
<path class="st0" d="M435.2,142.9c0-5.1-4.2-9.3-9.3-9.3h-16.4c4.8,15,7.2,30.7,7.1,46.5c0.2,23.4-5.3,46.5-15.9,67.4l34.5-6.3
	V142.9z"/>
<path class="st0" d="M528.3,96.3c0,42.6-32.1,78.4-74.4,83.2v18.7c52.6-4.8,92.9-48.9,93-101.8h0.1V40.6h-18.7V96.3z"/>
<path class="st0" d="M342.2,367.6v-61c-28.6,15.1-60.6,22.8-93,22.3c-25.4,0.2-50.7-4.4-74.4-13.6v35.6c0,23.6,6,46.8,17.3,67.5
	l27.6,50.6c6.2,11.3,13.9,21.5,22.9,30.6l48.3,48.3c14.8,14.7,37.7,17.8,55.9,7.4l17.5-10l-65.8-65.8l13.2-13.1l67,67
	c13.2,13.2,32.9,17.2,50.2,10.3l53-21.2V471l-28.3,7l6.9,6.9l-13.2,13.2l-87.1-87C348.7,399.6,342.2,383.9,342.2,367.6z"/>
<path class="st0" d="M395.4,325.4l92.5-21.9c14.1-2.4,23.6-15.9,21.2-30.1c-2.4-14.1-15.9-23.6-30.1-21.2l-55.5,10.1L395.4,325.4z"
	/>
<path class="st0" d="M360.9,366.1H426c5.1,0,9.3-4.2,9.3-9.3V335l-74.4,17.7V366.1z"/>
<title>space-explorer-observation-travel-astronaut</title>
<g id="Layer_2">
</g>
<path class="st1" d="M221.3,68.5c-61.6,0-111.6,50-111.6,111.6s50,111.6,111.6,111.6c61.6-0.1,111.5-50,111.6-111.6
	C332.9,118.5,283,68.5,221.3,68.5z M212,133.6c-32,0-63.2,15.9-81.7,27.4c9.1-43,47-73.9,91-73.9c45.1,0.1,83.6,32.4,91.5,76.8
	C290.2,152.6,246.9,133.6,212,133.6z"/>
<path class="st1" d="M221.3,273.1c-49.6-0.1-90.4-39-92.8-88.5c11.4-8.2,47.8-32.4,83.5-32.4c36.5,0,86.4,25,102,33.3
	C311.2,234.6,270.6,273.1,221.3,273.1z"/>
<path class="st2" d="M221.3,273.1c-49.6-0.1-90.4-39-92.8-88.5c11.4-8.2,47.8-32.4,83.5-32.4c36.5,0,86.4,25,102,33.3
	C311.2,234.6,270.6,273.1,221.3,273.1z"/>
<path class="st1" d="M286.4,347.5h-55.8c-15.4,0-27.9,12.5-27.9,27.9v27.9c0,15.4,12.5,27.9,27.9,27.9h55.8
	c15.4,0,27.9-12.5,27.9-27.9v-27.9C314.3,360,301.9,347.5,286.4,347.5z M295.7,403.3c0,5.1-4.2,9.3-9.3,9.3h-55.8
	c-5.1,0-9.3-4.2-9.3-9.3v-27.9c0-5.1,4.2-9.3,9.3-9.3h55.8c5.1,0,9.3,4.2,9.3,9.3V403.3z"/>
<rect x="351.5" y="161.5" class="st1" width="18.6" height="46.5"/>
<path class="st1" d="M565.6,96.5V22H559h-12h-18.7h-18.6v74.4c-0.1,32.3-23.8,59.7-55.8,64.4v-17.9c0-15.4-12.5-27.9-27.9-27.9
	h-24.1c-25.2-51.3-81-83.7-152.6-83.7c-98.7,0-167.5,61.2-167.5,148.8c-0.9,45.6,20.4,88.7,57.2,115.6l-80.9,16.5
	c-21.3,3.9-36.8,22.6-36.6,44.3c0.2,27.8,18.8,43.7,51.5,43.7l89.6-5c3.2,11.2,7.6,21.9,13.2,32.1l27.6,50.6
	c7,12.8,15.7,24.5,26,34.8l48.3,48.3c20.8,20.7,52.8,25,78.3,10.5l24.3-14c17,9.4,37.4,10.6,55.4,3.3l51-20.4
	c5.6,16.1,23.2,24.7,39.3,19.1c12.4-4.3,20.7-15.9,20.8-29v-62c0-10.3-8.3-18.6-18.6-18.6H491v0.2c-0.7-0.1-1.5-0.1-2.2,0
	l-50.7,12.5l-64.7-64.7c-3.3-3.3-6-7-8-11.2c-0.3-0.7-0.6-1.4-0.9-2.1H426c15.4,0,27.9-12.5,27.9-27.9v-26.1l37.8-8.9
	c24.3-4.4,40.3-27.7,35.9-51.9c-4.4-24.3-27.7-40.3-51.9-35.9l-21.7,3.9v-20.9C516.9,212,565.5,159.6,565.6,96.5z M500.4,468.5h27.9
	v62c0,6.8-5.5,12.3-12.3,12.3c-5.3,0-10-3.4-11.7-8.4l-3.9-11.7V468.5z M416.6,180.1c0.1-15.8-2.3-31.5-7.1-46.5h16.4
	c5.1,0,9.3,4.2,9.3,9.3v98.3l-34.5,6.3C411.3,226.6,416.8,203.5,416.6,180.1z M401.3,266.4l-28.7,64.5l-11.7,2.7v-38.9
	c9.8-7.4,18.6-16.1,26.2-25.7L401.3,266.4z M72.5,381.7c-28.8,0-32.3-14.4-32.4-25.3c-0.1-12.7,9-23.7,21.6-25.8l43.3-8.8l28.3,56.6
	L72.5,381.7z M153.5,377.1l-29.7-59.3l32.3-6.6v39.7c0,8.7,0.8,17.4,2.2,25.9L153.5,377.1z M100.4,180.1
	c0-76.7,61.2-130.2,148.8-130.2S398,103.4,398,180.1s-61.2,130.2-148.8,130.2S100.4,256.8,100.4,180.1z M447.3,498.1l13.2-13.2
	l-6.9-6.9l28.3-7v51.5l-53,21.2c-17.3,6.9-37,2.9-50.2-10.3l-67-67l-13.2,13.1l65.8,65.8l-17.5,10c-18.2,10.4-41.1,7.3-55.9-7.4
	l-48.3-48.3c-9-9.1-16.7-19.3-22.9-30.6l-27.6-50.6c-11.3-20.7-17.3-43.9-17.3-67.5v-35.6c23.7,9.2,49,13.8,74.4,13.6
	c32.4,0.5,64.4-7.2,93-22.3v61c0,16.3,6.5,32,18,43.5L447.3,498.1z M435.3,356.8c0,5.1-4.2,9.3-9.3,9.3h-65.1v-13.4l74.4-17.7V356.8
	z M479,252.2c14.2-2.4,27.7,7.1,30.1,21.2c2.4,14.2-7.1,27.7-21.2,30.1l-92.5,21.9l28.1-63.1L479,252.2z M453.9,198.2v-18.7
	c42.3-4.8,74.4-40.6,74.4-83.2V40.6H547v55.8h-0.1C546.8,149.3,506.5,193.4,453.9,198.2z"/>
</svg>
