<?xml version="1.0" encoding="utf-8"?>
<!-- Generator: Adobe Illustrator 18.0.0, SVG Export Plug-In . SVG Version: 6.00 Build 0)  -->
<!DOCTYPE svg PUBLIC "-//W3C//DTD SVG 1.1//EN" "http://www.w3.org/Graphics/SVG/1.1/DTD/svg11.dtd">
<svg version="1.1" id="Layer_1" xmlns="http://www.w3.org/2000/svg" xmlns:xlink="http://www.w3.org/1999/xlink" x="0px" y="0px"
	 width="841.9px" height="595.3px" viewBox="0 0 841.9 595.3" enable-background="new 0 0 841.9 595.3" xml:space="preserve">
<g>
	<rect x="0" y="0" fill="#292E32" width="841.9" height="595.3"/>
	
		<radialGradient id="SVGID_1_" cx="613.1795" cy="-186.1224" r="106.4947" gradientTransform="matrix(0.1589 0 0 2.5529 515.7191 772.7961)" gradientUnits="userSpaceOnUse">
		<stop  offset="0" style="stop-color:#0C1015"/>
		<stop  offset="0.3093" style="stop-color:#0E1217;stop-opacity:0.6907"/>
		<stop  offset="0.5437" style="stop-color:#14181C;stop-opacity:0.4563"/>
		<stop  offset="0.7535" style="stop-color:#1D2125;stop-opacity:0.2465"/>
		<stop  offset="0.9478" style="stop-color:#262B2F;stop-opacity:5.221015e-002"/>
		<stop  offset="1" style="stop-color:#292E32;stop-opacity:0"/>
	</radialGradient>
	<ellipse fill="url(#SVGID_1_)" cx="613.2" cy="297.6" rx="16.9" ry="271.9"/>
	
		<radialGradient id="SVGID_2_" cx="-1805.7363" cy="-186.1224" r="106.4947" gradientTransform="matrix(0.1589 0 0 2.5529 515.7191 772.7961)" gradientUnits="userSpaceOnUse">
		<stop  offset="0" style="stop-color:#0C1015"/>
		<stop  offset="0.3093" style="stop-color:#0E1217;stop-opacity:0.6907"/>
		<stop  offset="0.5437" style="stop-color:#14181C;stop-opacity:0.4563"/>
		<stop  offset="0.7535" style="stop-color:#1D2125;stop-opacity:0.2465"/>
		<stop  offset="0.9478" style="stop-color:#262B2F;stop-opacity:5.221015e-002"/>
		<stop  offset="1" style="stop-color:#292E32;stop-opacity:0"/>
	</radialGradient>
	<ellipse fill="url(#SVGID_2_)" cx="228.7" cy="297.6" rx="16.9" ry="271.9"/>
	<g>
		<rect x="228.7" y="25.8" fill="#FDDD00" width="384.5" height="543.7"/>
		
			<rect x="290" y="257.4" transform="matrix(0.7071 -0.7071 0.7071 0.7071 -77.6042 341.1685)" fill="#924299" width="166.1" height="13.8"/>
		<polygon fill="#FFFFFF" points="228.7,561.9 228.7,569.5 240.6,569.5 561.4,248.7 551.6,238.9 		"/>
		<circle fill="#924299" cx="453.4" cy="62.2" r="16.8"/>
		<path fill="#924299" d="M540.6,552.7c-9.3,0-16.8,7.5-16.8,16.8h33.5C557.4,560.3,549.9,552.7,540.6,552.7z"/>
		<polygon fill="#924299" points="477.1,266.8 613.2,130.8 613.2,80.5 452,241.7 		"/>
		<polygon fill="#924299" points="367.1,378.4 350.3,361.6 228.7,483.1 228.7,516.8 		"/>
		<polygon fill="#EF4E95" points="369.7,158.8 344.6,133.7 228.7,249.6 228.7,299.8 		"/>
		<polygon fill="#EF4E95" points="358.4,569.5 532.1,395.8 507,370.7 308.2,569.5 		"/>
		<polygon fill="#FFFFFF" points="613.2,473.6 556,530.8 581.1,556 613.2,523.9 		"/>
		<polygon fill="#EF4E95" points="491.1,156 613.2,33.9 613.2,25.8 601.8,25.8 481.3,146.2 		"/>
		<polygon fill="#924299" points="408.1,43.1 398.3,33.4 228.7,203 228.7,222.5 		"/>
		<polygon fill="#FFFFFF" points="228.7,76.7 228.7,96.2 299.2,25.8 279.7,25.8 		"/>
		<polygon fill="#FFFFFF" points="272.1,374.9 262.4,365.2 228.7,398.8 228.7,418.3 		"/>
		<polygon fill="#924299" points="516.5,46.6 228.7,334.3 228.7,343.4 521,51.1 		"/>
		<polygon fill="#EF4E95" points="367.1,25.8 358.1,25.8 245.6,138.3 250.1,142.8 		"/>
		<polygon fill="#924299" points="400.2,556 613.2,343 613.2,334 395.7,551.5 		"/>
		<polygon fill="#EF4E95" points="588.3,445 578.6,435.2 444.3,569.5 463.8,569.5 		"/>
		<path fill="#EF4E95" d="M245.5,70.2c0-9.3-7.5-16.8-16.8-16.8v33.5C238,86.9,245.5,79.4,245.5,70.2z"/>
		<circle fill="#EF4E95" cx="575.7" cy="169" r="13.4"/>
		<circle fill="#924299" cx="259" cy="271.1" r="13.4"/>
		<circle fill="#EF4E95" cx="298.6" cy="444.7" r="13.4"/>
		<circle fill="#924299" cx="395.7" cy="482.2" r="16.8"/>
		<circle fill="#924299" cx="511.4" cy="503.2" r="8.4"/>
		
			<rect x="290" y="149.1" transform="matrix(0.7071 -0.7071 0.7071 0.7071 -1.0312 309.4509)" fill="#924299" width="166.1" height="13.8"/>
		<polygon fill="#924299" points="613.2,256.5 524.5,345.2 534.2,354.9 613.2,276 		"/>
		<circle fill="#FFFFFF" cx="420.9" cy="297.6" r="133.4"/>
		<circle fill="#EF4E95" cx="464.1" cy="172.7" r="14.7"/>
		<circle fill="#FFFFFF" cx="282.2" cy="355.1" r="9"/>
	</g>
</g>
</svg>
