<svg xmlns="http://www.w3.org/2000/svg" viewBox="0 0 600 527.4">
  <defs>
    <style>
      .cls-3,.cls-5{opacity:.15}
      .cls-13,.cls-14,.cls-18,.cls-19{fill:none;stroke-linecap:round;stroke-linejoin:round}
      .cls-14,.cls-19{stroke-width:2px}
      .cls-5,.cls-9{fill:#fff}
      .cls-7{opacity:.75}
      .cls-7,.cls-8{fill:#e5e5e5}
      .cls-10{fill:#3a8bbb}
      .cls-11{fill:#ff4d91}
      .cls-12{fill:#00b6e3}
      .cls-13,.cls-14{stroke:#333}
      .cls-13,.cls-18{stroke-width:4px}
      .cls-15,.cls-17{fill:#f7f7f7}
      .cls-15{opacity:.5}
      .cls-18,.cls-19{stroke:#1c4754}
    </style>
  </defs>
  <g id="back">
    <g opacity=".2">
      <circle cx="457.28" cy="112.68" r="39.63" fill="#c4c4c4"/>
      <ellipse class="cls-3" cx="445.21" cy="85.67" rx="5.7" ry="3.67"/>
      <circle class="cls-3" cx="451.9" cy="106.3" r="3.34"/>
      <circle class="cls-3" cx="445.73" cy="124.98" r="5.17"/>
      <circle class="cls-3" cx="471.34" cy="125.45" r="4.71"/>
      <path class="cls-3" d="M542.83 118.87c-9.36 13.2 8.59 7.51 8.84 15.69s-27.25 8.17-11.39 29.48 29.73-.74 35.92 11.64 30.27-41.53 28.64-19.82c-8.92 30.8-34.22 44.84-70.88 17.71-17.47-27.24-4.67-43.67 8.87-54.7z" transform="translate(-108.56 -36.06)"/>
      <circle cx="457.28" cy="112.68" r="39.63" stroke-width="2" stroke="#939393" fill="none" stroke-linecap="round" stroke-linejoin="round"/>
      <ellipse class="cls-5" cx="585.62" cy="126.93" rx="5.26" ry="10.96" transform="rotate(-47.58 490.408 232.029)"/>
      <circle class="cls-5" cx="464.16" cy="93.22" r="3.02"/>
    </g>
    <circle cx="400.03" cy="393.1" r="1.5" opacity=".75" fill="#fff"/>
    <circle class="cls-7" cx="533.44" cy="13.65" r="2.29"/>
    <circle class="cls-7" cx="555.79" cy="228.32" r="2.29"/>
    <circle class="cls-7" cx="706.27" cy="246.26" r="2.29" transform="rotate(-33.32 591.838 409.618)"/>
    <circle class="cls-7" cx="13.64" cy="16.14" r="2.29"/>
    <circle class="cls-7" cx="28.64" cy="40.97" r="2.29"/>
    <circle class="cls-7" cx="202.75" cy="2.29" r="2.29"/>
    <circle class="cls-7" cx="95.29" cy="55.95" r="2.29"/>
    <circle class="cls-7" cx="196.08" cy="64.1" r="2.29"/>
    <circle class="cls-7" cx="321.21" cy="11.36" r="2.29"/>
    <circle class="cls-7" cx="429.62" cy="58.24" r="1.53"/>
    <circle class="cls-7" cx="496.14" cy="27.12" r="2.29"/>
    <circle class="cls-7" cx="471.19" cy="231.41" r="1.14"/>
    <circle class="cls-7" cx="479.16" cy="246.15" r="2.29"/>
    <circle class="cls-7" cx="530.88" cy="90.58" r="1.14"/>
    <circle class="cls-7" cx="55.23" cy="158.05" r="1.53"/>
    <circle class="cls-7" cx="82.36" cy="238.57" r="1.53"/>
    <circle class="cls-7" cx="2.29" cy="233.45" r="2.29"/>
    <circle class="cls-7" cx="12.33" cy="214.22" r="2.29"/>
    <circle class="cls-7" cx="383.53" cy="93.14" r="1.53"/>
    <circle class="cls-7" cx="395.17" cy="124.88" r="2.29"/>
    <path class="cls-8" d="M266.1 284.74c-2.81 0-2.8 2.26-2.8 6.43 0-4.18.09-6.39-3.31-6.39 3.4 0 3.31-2.61 3.31-5.52 0 2.91 0 5.48 2.8 5.48zM610.68 210.43c-2.46 0-2.45 2-2.45 5.63 0-3.65.08-5.59-2.9-5.59 3 0 2.9-2.29 2.9-4.83.01 2.54.01 4.79 2.45 4.79z" transform="translate(-108.56 -36.06)"/>
    <circle class="cls-7" cx="361.55" cy="157.56" r="2.29"/>
    <circle class="cls-7" cx="149.32" cy="155.27" r="2.29"/>
    <circle class="cls-7" cx="257.73" cy="202.15" r="1.53"/>
    <circle class="cls-7" cx="324.25" cy="171.03" r="2.29"/>
    <circle class="cls-7" cx="211.64" cy="237.05" r="1.53"/>
    <circle class="cls-7" cx="66.56" cy="285.94" r="2.29"/>
    <circle class="cls-7" cx="44.21" cy="500.62" r="2.29"/>
    <circle class="cls-7" cx="110.85" cy="518.56" r="2.29" transform="rotate(-56.68 23.117 601.136)"/>
    <circle class="cls-7" cx="586.36" cy="288.43" r="2.29"/>
    <circle class="cls-7" cx="571.36" cy="313.26" r="2.29"/>
    <circle class="cls-7" cx="397.25" cy="274.58" r="2.29"/>
    <circle class="cls-7" cx="504.71" cy="328.25" r="2.29"/>
    <circle class="cls-7" cx="403.92" cy="336.39" r="2.29"/>
    <circle class="cls-7" cx="278.79" cy="283.65" r="2.29"/>
    <circle class="cls-7" cx="170.38" cy="330.54" r="1.53"/>
    <circle class="cls-7" cx="103.86" cy="299.42" r="2.29"/>
    <circle class="cls-7" cx="128.81" cy="503.71" r="1.14"/>
    <circle class="cls-7" cx="120.84" cy="518.44" r="2.29"/>
    <circle class="cls-7" cx="69.12" cy="362.88" r="1.14"/>
    <circle class="cls-7" cx="544.77" cy="430.34" r="1.53"/>
    <circle class="cls-7" cx="517.64" cy="510.87" r="1.53"/>
    <circle class="cls-7" cx="597.71" cy="505.74" r="2.29"/>
    <circle class="cls-7" cx="587.67" cy="486.52" r="2.29"/>
    <circle class="cls-7" cx="216.47" cy="365.44" r="1.53"/>
    <circle class="cls-7" cx="204.83" cy="397.17" r="2.29"/>
    <path class="cls-8" d="M551 557c2.81 0 2.8 2.26 2.8 6.43 0-4.18-.09-6.39 3.31-6.39-3.4 0-3.31-2.61-3.31-5.52.02 2.94.02 5.48-2.8 5.48zM206.44 482.73c2.46 0 2.45 2 2.45 5.63 0-3.65-.08-5.59 2.9-5.59-3 0-2.9-2.29-2.9-4.83-.01 2.54-.01 4.79-2.45 4.79z" transform="translate(-108.56 -36.06)"/>
    <circle class="cls-7" cx="238.45" cy="429.85" r="2.29"/>
    <circle class="cls-7" cx="450.68" cy="427.56" r="2.29"/>
    <circle class="cls-7" cx="342.27" cy="474.45" r="1.53"/>
    <circle class="cls-7" cx="275.75" cy="443.33" r="2.29"/>
    <circle class="cls-7" cx="388.36" cy="509.35" r="1.53"/>
  </g>
  <g id="satellite">
    <g id="color">
      <path class="cls-9" d="M496.86 286.16a9.88 9.88 0 1 1-4.39 15.41 9.79 9.79 0 0 1-2.12-5.87 9.86 9.86 0 0 1 6.51-9.54z" transform="translate(-108.56 -36.06)"/>
      <path class="cls-10" d="M489.82 295.71h.53a9.79 9.79 0 0 0 2.12 5.87l-.41.33-7.74 2.8-2.24-6.19z" transform="translate(-108.56 -36.06)"/>
      <path class="cls-9" d="M490.6 351.18l-33.39-92.43a4.94 4.94 0 0 1 6.74-6.15 4.89 4.89 0 0 1 2.55 2.79l15.58 43.12 2.24 6.19 15.58 43.12a4.94 4.94 0 0 1-9.29 3.36z" transform="translate(-108.56 -36.06)"/>
      <path class="cls-11" d="M457.21 258.75l33.39 92.43a49.39 49.39 0 0 1-57.28-28.06c-.44-1-.84-2-1.22-3.05s-.72-2.08-1-3.13a49.39 49.39 0 0 1 26.11-58.19z" transform="translate(-108.56 -36.06)"/>
      <path class="cls-10" d="M431 316.1h.13c.36 1.27.78 2.54 1.23 3.8s.94 2.5 1.48 3.71l-.12.05-9.41 3.4-2.72-7.52zM424.67 328l1 2.82a8 8 0 0 1-4.8 10.18l-1.88.68-2.72-7.52s9.41-3.4 8.39-6.22z" transform="translate(-108.56 -36.06)"/>
      <path class="cls-10" d="M424.33 327l.34.94c1 2.82-8.39 6.22-8.39 6.22l-5.44-15s9.41-3.4 10.42-.58l.34.94z" transform="translate(-108.56 -36.06)"/>
      <path class="cls-10" d="M420.25 315.74l1 2.82c-1-2.82-10.42.58-10.42.58l-2.72-7.52 1.88-.68a8 8 0 0 1 10.26 4.8z" transform="translate(-108.56 -36.06)"/>
      <path class="cls-12" d="M464 451.46l3.91 10.82a8 8 0 0 1-4.81 10.24l-6.58 2.38-6.63-18.34z" transform="translate(-108.56 -36.06)"/>
      <path class="cls-12" transform="rotate(-19.86 296.27 736.454)" d="M445.92 434.12h15v20.5h-15z"/>
      <path class="cls-12" transform="rotate(-19.86 289.464 717.66)" d="M439.12 415.81h15v19.5h-15z"/>
      <path class="cls-12" d="M334.84 358.5l6.97 19.28-14.11 5.09-6.96-19.28 14.1-5.09z"/>
      <path class="cls-12" transform="rotate(-19.86 275.861 680.015)" d="M425.54 378.19h14.99v19.5h-14.99z"/>
      <path class="cls-12" d="M432.53 364.46l4.25 11.76-14.1 5.09-7-19.28 6.57-2.38a8 8 0 0 1 10.28 4.81zM399.74 273.71l4.26 11.75a8 8 0 0 1-4.81 10.24l-6.58 2.38-7-19.28z" transform="translate(-108.56 -36.06)"/>
      <path class="cls-12" transform="rotate(-19.86 232.178 559.128)" d="M381.87 257.33h15v19.5h-15z"/>
      <path class="cls-12" transform="rotate(-19.86 225.4 540.339)" d="M375.07 238.02h15v20.5h-15z"/>
      <path class="cls-12" transform="rotate(-19.86 218.599 521.516)" d="M368.28 219.71h15v19.5h-15z"/>
      <path class="cls-12" transform="rotate(-19.86 211.798 502.694)" d="M361.48 200.4h15v20.5h-15z"/>
      <path class="cls-12" d="M368.65 187.65l3.91 10.82-14.11 5.1-6.63-18.34 6.58-2.38a8 8 0 0 1 10.25 4.8z" transform="translate(-108.56 -36.06)"/>
      <path class="cls-11" d="M416.27 334.19l2.72 7.52a8 8 0 0 1-4.81 10.29l-26.33 9.51-7.52 2.72-18.81 6.77a8 8 0 0 1-10.24-4.81l-2.72-7.52-5.44-15-2.72-7.52a8 8 0 0 1 4.81-10.24L364 319l7.52-2.72 26.33-9.51a8 8 0 0 1 10.24 4.81l2.72 7.52z" transform="translate(-108.56 -36.06)"/>
      <path class="cls-12" transform="rotate(-19.86 254.947 666.316)" d="M404.63 363.97h15.01v20.5h-15.01z"/>
      <path class="cls-12" transform="rotate(-19.86 261.753 685.11)" d="M411.43 383.28h15.01v19.5h-15.01z"/>
      <path class="cls-12" d="M320.74 363.59l6.96 19.28-14.11 5.1-6.96-19.28 14.11-5.1z"/>
      <path class="cls-12" transform="rotate(-19.86 275.355 722.755)" d="M425.02 420.91h15v19.5h-15z"/>
      <path class="cls-12" transform="rotate(-19.86 282.156 741.578)" d="M431.81 439.22h15v20.5h-15z"/>
      <path class="cls-12" transform="rotate(-19.86 288.934 760.367)" d="M438.61 458.53h15v19.5h-15z"/>
      <path class="cls-12" transform="rotate(-19.86 224.87 583.046)" d="M374.56 280.74h15v20.5h-15z"/>
      <path class="cls-12" transform="rotate(-19.86 218.064 564.252)" d="M367.76 262.43h15v19.5h-15z"/>
      <path class="cls-12" transform="rotate(-19.86 211.292 545.434)" d="M360.97 243.12h15v20.5h-15z"/>
      <path class="cls-12" transform="rotate(-19.86 204.49 526.611)" d="M354.17 224.81h15v19.5h-15z"/>
      <path class="cls-12" transform="rotate(-19.86 197.69 507.789)" d="M347.37 205.5h15V226h-15z"/>
      <path class="cls-12" transform="rotate(-19.86 190.883 488.994)" d="M340.58 187.19h15v19.5h-15z"/>
      <path class="cls-12" transform="rotate(-19.86 274.825 765.462)" d="M424.5 463.62h15v19.5h-15z"/>
      <path class="cls-12" transform="rotate(-19.86 268.048 746.673)" d="M417.71 444.31h15v20.5h-15z"/>
      <path class="cls-12" transform="rotate(-19.86 261.247 727.85)" d="M410.91 426h15v19.5h-15z"/>
      <path class="cls-12" d="M306.63 368.69l6.96 19.28-14.11 5.1-6.95-19.29 14.1-5.09z"/>
      <path class="cls-12" transform="rotate(-19.86 247.644 690.205)" d="M397.33 388.38h14.99v19.5h-14.99z"/>
      <path class="cls-12" d="M293.03 331.07l6.97 19.28-14.1 5.09-6.96-19.28 3.75-1.35 10.34-3.74zM262.96 247.84l6.97 19.28-10.35 3.74-3.76 1.35-6.97-19.28 14.11-5.09z"/>
      <path class="cls-12" transform="rotate(-19.86 203.956 569.347)" d="M353.65 267.53h15v19.5h-15z"/>
      <path class="cls-12" transform="rotate(-19.86 197.183 550.529)" d="M346.86 248.22h15v20.5h-15z"/>
      <path class="cls-12" transform="rotate(-19.86 190.382 531.706)" d="M340.06 229.91h15v19.5h-15z"/>
      <path class="cls-12" transform="rotate(-19.86 183.575 512.912)" d="M333.27 210.6h15v20.5h-15z"/>
      <path class="cls-12" transform="rotate(-19.86 176.774 494.09)" d="M326.47 192.29h15v19.5h-15z"/>
      <path class="cls-10" d="M279.29 325.4l3.4 9.41-3.75 1.35-3.77 1.37-3.4-9.41 7.52-2.72zM259.58 270.86l3.4 9.4-7.52 2.72-3.4-9.41 3.76-1.36 3.76-1.35z"/>
      <path class="cls-12" d="M278.94 336.16l6.96 19.28-14.11 5.11-6.97-19.29 10.35-3.73 3.77-1.37z"/>
      <path class="cls-12" transform="rotate(-19.86 233.53 695.329)" d="M383.21 393.48h15.01v19.5h-15.01z"/>
      <path class="cls-12" d="M292.53 373.78l6.95 19.29-14.1 5.1-6.97-19.29 14.12-5.1z"/>
      <path class="cls-12" transform="rotate(-19.86 247.138 732.945)" d="M396.8 431.1h15v19.5h-15z"/>
      <path class="cls-12" transform="rotate(-20 252.65 751.32)" d="M403.6 449.41h15v20.5h-15z"/>
      <path class="cls-12" transform="rotate(-19.86 260.717 770.557)" d="M410.39 468.72h15v19.5h-15z"/>
      <path class="cls-12" d="M248.85 252.93l6.97 19.28-3.76 1.36-10.35 3.74-6.96-19.28 14.1-5.1z"/>
      <path class="cls-12" transform="rotate(-19.86 189.847 574.442)" d="M339.55 272.62h15v19.5h-15z"/>
      <path class="cls-12" transform="rotate(-19.86 183.046 555.619)" d="M332.75 253.31h15v20.5h-15z"/>
      <path class="cls-12" transform="rotate(-19.86 176.273 536.801)" d="M325.96 235h15v19.5h-15z"/>
      <path class="cls-12" transform="rotate(-20 168.584 517.691)" d="M319.16 215.69h15v20.5h-15z"/>
      <path class="cls-12" transform="rotate(-19.86 162.666 499.184)" d="M312.36 197.38h15v19.5h-15z"/>
      <path class="cls-12" transform="rotate(-19.86 246.603 775.68)" d="M396.29 473.82h15v19.5h-15z"/>
      <path class="cls-12" transform="rotate(-19.86 239.83 756.863)" d="M389.49 454.51h15v20.5h-15z"/>
      <path class="cls-12" transform="rotate(-19.86 233.03 738.04)" d="M382.69 436.2h15v19.5h-15z"/>
      <path class="cls-12" d="M278.41 378.88l6.97 19.29-14.11 5.09-6.96-19.28 14.1-5.1z"/>
      <path class="cls-12" transform="rotate(-19.86 219.422 700.424)" d="M369.11 398.57h14.99v19.5h-14.99z"/>
      <path class="cls-12" transform="rotate(-19.86 212.62 681.6)" d="M362.32 379.26h14.99v20.5h-14.99z"/>
      <path class="cls-12" transform="rotate(-19.86 182.54 598.36)" d="M332.24 296.03h15v20.5h-15z"/>
      <path class="cls-12" transform="rotate(-19.86 175.738 579.537)" d="M325.44 277.72h15v19.5h-15z"/>
      <path class="cls-12" transform="rotate(-19.86 168.937 560.714)" d="M318.64 258.41h15v20.5h-15z"/>
      <path class="cls-12" transform="rotate(-19.86 162.16 541.925)" d="M311.85 240.1h15v19.5h-15z"/>
      <path class="cls-12" transform="rotate(-19.86 155.358 523.102)" d="M305.05 220.79h15v20.5h-15z"/>
      <path class="cls-12" transform="rotate(-19.86 148.557 504.28)" d="M298.26 202.48h15v19.5h-15z"/>
      <path class="cls-12" d="M359.28 382.42l7 19.28-14.11 5.1-4.29-11.8a8 8 0 0 1 4.81-10.24z" transform="translate(-108.56 -36.06)"/>
      <path class="cls-12" d="M257.69 365.64l6.62 18.34-14.11 5.1-6.63-18.34h.01l14.11-5.1zM264.31 383.98l6.96 19.28-14.11 5.1-6.96-19.28 14.11-5.1z"/>
      <path class="cls-12" transform="rotate(-19.86 218.92 743.135)" d="M368.59 441.29h15v19.5h-15z"/>
      <path class="cls-12" transform="rotate(-20 224.448 761.461)" d="M375.38 459.6h15v20.5h-15z"/>
      <path class="cls-12" d="M393.42 476.94l6.58 18.34-6.58 2.38a8 8 0 0 1-10.24-4.81L379.31 482zM329.2 299.19l7 19.28-6.58 2.38a8 8 0 0 1-10.28-4.85l-4.25-11.76z" transform="translate(-108.56 -36.06)"/>
      <path class="cls-12" transform="rotate(-19.86 161.63 584.632)" d="M311.33 282.82h15v19.5h-15z"/>
      <path class="cls-12" transform="rotate(-19.86 154.829 565.809)" d="M304.54 263.51h15v20.5h-15z"/>
      <path class="cls-12" transform="rotate(-19.86 148.05 547.02)" d="M297.74 245.2h15v19.5h-15z"/>
      <path class="cls-12" transform="rotate(-19.86 141.25 528.197)" d="M290.94 225.89h15v20.5h-15z"/>
      <path class="cls-12" d="M295.39 205.61l6.61 18.34-14.09 5.05-3.91-10.77a8 8 0 0 1 4.81-10.23z" transform="translate(-108.56 -36.06)"/>
      <path class="cls-10" transform="rotate(-19.86 188.017 656.188)" d="M340.21 360.11h10v8h-10z"/>
      <path class="cls-10" transform="rotate(-19.86 183.957 644.91)" d="M336.13 344.83h10v16h-10z"/>
      <path class="cls-10" transform="rotate(-19.86 179.868 633.627)" d="M332.06 337.54h10v8h-10z"/>
      <path class="cls-11" d="M339.15 362l2.72 7.52a8 8 0 0 1-4.81 10.24L314.49 388a8 8 0 0 1-10.24-4.81l-2.72-7.52-5.44-15-2.72-7.52a8 8 0 0 1 4.81-10.24l22.57-8.16a8 8 0 0 1 10.25 4.73l2.72 7.52z" transform="translate(-108.56 -36.06)"/>
      <path class="cls-10" d="M301.53 375.64l2.72 7.52-1.88.68a8 8 0 0 1-10.24-4.84l-1-2.82c1 2.82 10.4-.54 10.4-.54z" transform="translate(-108.56 -36.06)"/>
      <path class="cls-10" d="M296.09 360.59l5.44 15s-9.41 3.4-10.42.58l-1.7-4.7-1.7-4.7c-1.02-2.77 8.38-6.18 8.38-6.18z" transform="translate(-108.56 -36.06)"/>
      <path class="cls-10" d="M293.38 353.07l2.72 7.52s-9.41 3.4-8.39 6.22l-1-2.82a8 8 0 0 1 4.81-10.24z" transform="translate(-108.56 -36.06)"/>
      <path class="cls-9" d="M277.7 371.49a4 4 0 1 1-2.4 5.12 4 4 0 0 1 2.4-5.12z" transform="translate(-108.56 -36.06)"/>
      <path class="cls-13" d="M419 341.71a8 8 0 0 1-4.82 10.29l-26.33 9.51-7.52 2.72-18.81 6.77a8 8 0 0 1-10.24-4.81l-2.72-7.52-5.44-15-2.72-7.52a8 8 0 0 1 4.81-10.24L364 319l7.52-2.72 26.33-9.51a8 8 0 0 1 10.24 4.81l2.72 7.52 5.44 15zM341.87 369.57a8 8 0 0 1-4.81 10.24L314.49 388a8 8 0 0 1-10.24-4.81l-2.72-7.52-5.44-15-2.72-7.52a8 8 0 0 1 4.81-10.24l22.57-8.16a8 8 0 0 1 10.25 4.73l2.72 7.52 5.44 15z" transform="translate(-108.56 -36.06)"/>
      <path class="cls-13" d="M222.44 303.41l9.4-3.39M233.31 333.51l9.4-3.4"/>
      <path class="cls-13" d="M304.25 383.16l-1.88.68a8 8 0 0 1-10.24-4.84l-1-2.82-1.7-4.7-1.7-4.7-1-2.82a8 8 0 0 1 4.81-10.24l1.88-.68M419 341.71l1.88-.68a8 8 0 0 0 4.82-10.25l-1-2.82-.34-.94-2.72-7.52-.34-.94-1-2.82a8 8 0 0 0-10.3-4.81l-1.88.68M282.82 373.89a4 4 0 1 1-5.12-2.4 4 4 0 0 1 5.12 2.4z" transform="translate(-108.56 -36.06)"/>
      <path class="cls-13" d="M174.26 337.83l6.59-2.38"/>
      <path class="cls-13" d="M484.31 304.7l15.58 43.12a4.94 4.94 0 0 1-9.29 3.36l-33.39-92.43a4.94 4.94 0 0 1 6.74-6.15 4.89 4.89 0 0 1 2.55 2.79l15.58 43.12z" transform="translate(-108.56 -36.06)"/>
      <path class="cls-13" d="M490.61 351.17a49.39 49.39 0 0 1-57.28-28.06c-.44-1-.84-2-1.22-3.05s-.72-2.08-1-3.13a49.39 49.39 0 0 1 26.12-58.19" transform="translate(-108.56 -36.06)"/>
      <path class="cls-13" d="M325.17 287.56l-9.4 3.4M322.45 280.04l-9.4 3.4M383.5 265.84l-7.75 2.8M381.26 259.65l-7.74 2.8"/>
      <path class="cls-13" d="M490.35 295.7a9.88 9.88 0 1 1 2.12 5.87 9.79 9.79 0 0 1-2.12-5.87z" transform="translate(-108.56 -36.06)"/>
      <path class="cls-14" d="M225.15 310.94l9.41-3.4M230.59 325.99l9.41-3.4"/>
      <path class="cls-14" d="M296.09 360.59s-9.41 3.4-8.39 6.22M301.53 375.64s-9.41 3.4-10.42.58M410.84 319.13s9.41-3.4 10.42-.58M416.27 334.19s9.41-3.4 8.39-6.22" transform="translate(-108.56 -36.06)"/>
      <path class="cls-13" d="M262.98 280.26l-3.4-9.41M255.46 282.98l-3.4-9.41"/>
      <path class="cls-13" d="M399.74 273.71l4.26 11.75a8 8 0 0 1-4.81 10.24l-6.58 2.38-14.11 5.1-10.35 3.74-3.76 1.36-3.76 1.36-10.35 3.74-14.11 5.1-6.58 2.38a8 8 0 0 1-10.25-4.86l-4.25-11.76-6.63-18.34-7-19.28-6.63-18.34-7-19.28-3.83-10.77a8 8 0 0 1 4.81-10.23l6.58-2.38 14.11-5.1 14.11-5.1 14.11-5.1 14.11-5.1 6.58-2.38a8 8 0 0 1 10.24 4.81l3.91 10.82 7 19.28 6.63 18.34 7 19.28z" transform="translate(-108.56 -36.06)"/>
      <path class="cls-13" d="M200.94 164.45l6.62 18.34 6.97 19.28 6.63 18.34 6.96 19.28 6.63 18.34 6.96 19.28M229.15 154.26l6.63 18.34 6.97 19.28 6.62 18.34 6.97 19.28 6.62 18.34 6.97 19.28"/>
      <path class="cls-13" d="M199.91 249.88l14.1-5.09 14.11-5.1 14.11-5.1 14.11-5.09 14.1-5.1 14.11-5.1M186.31 212.26l14.11-5.09 14.11-5.1 14.11-5.1 14.11-5.09 14.1-5.1 14.11-5.1"/>
      <path class="cls-14" d="M291.18 237.64l-14.11 5.1-14.11 5.1-14.11 5.09-14.1 5.1-14.11 5.1-14.11 5.09"/>
      <path class="cls-14" d="M215.05 159.35l6.62 18.34 6.97 19.28 6.62 18.34 6.97 19.28 6.62 18.34 6.97 19.28M243.26 149.16l6.63 18.34 6.96 19.28 6.63 18.34 6.96 19.28 6.63 18.34 6.97 19.28M186.83 169.55l6.63 18.34 6.96 19.28 6.63 18.34 6.96 19.28 6.63 18.34 6.97 19.28"/>
      <path class="cls-14" d="M277.59 200.02l-14.11 5.1-14.11 5.1-14.11 5.09-14.1 5.1-14.11 5.1-14.11 5.09M263.99 162.4l-14.1 5.1-14.11 5.1-14.11 5.09-14.11 5.1-14.1 5.1-14.11 5.09M256.56 327.24l-5.64 2.03M290.42 315l-30.1 10.88M303.59 310.25l-6.59 2.38M226.47 338.11l-22.58 8.15"/>
      <path class="cls-13" d="M271.77 328.12l3.39 9.41M279.29 325.4l3.4 9.41"/>
      <path class="cls-13" d="M352.13 406.8l-4.25-11.8a8 8 0 0 1 4.81-10.24l6.59-2.38 14.1-5.09 10.35-3.74 3.77-1.36 3.75-1.36 10.35-3.74 14.12-5.1 6.57-2.38a8 8 0 0 1 10.24 4.81l4.25 11.76 6.63 18.34 7 19.28 6.59 18.38 7 19.28 3.91 10.82a8 8 0 0 1-4.81 10.24l-6.58 2.38-14.15 5.1-14.11 5.1-14.11 5.1-14.15 5.08-6.58 2.38a8 8 0 0 1-10.24-4.81L379.31 482l-7-19.28-6.63-18.34-7-19.28z" transform="translate(-108.56 -36.06)"/>
      <path class="cls-13" d="M333.81 443.93l-6.63-18.34-6.96-19.28-6.63-18.34-6.96-19.28-6.63-18.34-6.97-19.28"/>
      <path class="cls-13" d="M334.84 358.5l-14.1 5.09-14.11 5.1-14.1 5.09-14.12 5.1-14.1 5.1-14.11 5.1M348.43 396.12l-14.11 5.09-14.1 5.1-14.11 5.1L292 416.5l-14.11 5.1-14.1 5.1"/>
      <path class="cls-14" d="M243.58 370.74l14.11-5.1 14.1-5.09 14.11-5.11 14.1-5.09 14.12-5.1 14.09-5.09.01-.01"/>
      <path class="cls-14" d="M319.7 449.03l-6.62-18.34-6.97-19.28-6.63-18.34-6.95-19.29-6.63-18.34-6.96-19.28M291.49 459.22l-6.63-18.34-6.97-19.28-6.62-18.34-6.96-19.28-6.62-18.34-6.97-19.28M347.92 438.83l-6.63-18.34-6.97-19.28-6.62-18.34-6.96-19.28-6.62-18.34-6.97-19.28"/>
      <path class="cls-14" d="M257.16 408.36l14.11-5.1 14.11-5.09 14.1-5.1 14.11-5.1 14.11-5.1 14.11-5.09M270.75 445.98l14.11-5.1 14.11-5.09 14.11-5.1 14.1-5.1 14.11-5.1 14.11-5.09"/>
      <path class="cls-13" d="M305.59 454.13l-6.62-18.34L292 416.5l-6.62-18.33-6.97-19.29-6.62-18.33-6.97-19.29"/>
    </g>
    <g id="shadows">
      <path class="cls-15" d="M456.28 346.13a46.94 46.94 0 0 1 2.57-87.93l1.63 4.79a46.95 46.95 0 0 0-4.2 83.14z" transform="translate(-108.56 -36.06)"/>
      <ellipse class="cls-15" cx="444.06" cy="293.7" rx="11.21" ry="6" transform="rotate(-79.01 367.89 341.5)"/>
      <ellipse class="cls-15" cx="449.45" cy="278.66" rx="2.81" ry="1.5" transform="rotate(-55.09 360.594 364.696)"/>
      <path class="cls-3" d="M472.51 301.09c9.51 26.32-2.84 57.47-27.5 39.69 0 0 23.11 18.52 45.59 10.4z" transform="translate(-108.56 -36.06)"/>
      <path d="M476.84 313.09c4.34 12 13.25 7.61 7.33-8.77l16.18 44.78c2.19 6.05-7.33 8.76-9.52 2.7z" transform="translate(-108.56 -36.06)" opacity=".07"/>
      <path class="cls-17" d="M460.53 253.39a4.94 4.94 0 0 0-3 6.32l1.68 4.64a4.94 4.94 0 0 1 9.29-3.36l-1.68-4.64a4.94 4.94 0 0 0-6.29-2.96zM505.93 287.4a9.87 9.87 0 0 0-8.26 17.6 9.88 9.88 0 1 1 8.26-17.6z" transform="translate(-108.56 -36.06)"/>
      <path class="cls-3" transform="rotate(-19.86 329.59 592.371)" d="M482.97 297.03h7.58v6.58h-7.58z"/>
      <ellipse class="cls-17" cx="497.38" cy="292.98" rx="2.03" ry="1.57" transform="rotate(-62.83 413.6 363.822)"/>
      <rect class="cls-15" x="344.65" y="326.6" width="37.09" height="6.73" rx="3.37" ry="3.37" transform="rotate(-19.86 206.004 622.042)"/>
      <path class="cls-15" d="M387.82 324.65l.23-.08a3.37 3.37 0 0 1-4.31-2 3.37 3.37 0 0 1 2-4.31l-.23.08a3.37 3.37 0 0 1 4.31 2 3.37 3.37 0 0 1-2 4.31z" transform="translate(-108.56 -36.06)"/>
      <rect class="cls-15" x="297.67" y="347.37" width="16.09" height="6.73" rx="3.37" ry="3.37" transform="rotate(-19.86 148.499 642.823)"/>
      <path class="cls-15" d="M278.14 379.32c-1.19-2.32-.05-5.78 4.09-6.35-6.94-4.58-8.77 5.43-4.09 6.35zM286.43 363.28a8 8 0 0 1 4.81-10.28l1.88-.68 1.7 4.7-1.88.68a8 8 0 0 0-4.81 10.3zM407.78 310.67l1.7 4.7a8 8 0 0 0-10.24-4.81l-52.67 19a8 8 0 0 0-4.81 10.24l-1.7-4.7a8 8 0 0 1 4.81-10.24l52.67-19a8 8 0 0 1 10.24 4.81z" transform="translate(-108.56 -36.06)"/>
      <path class="cls-15" d="M330.66 338.54l1.7 4.7a8 8 0 0 0-10.24-4.81l-22.57 8.16a8 8 0 0 0-4.81 10.24l-1.7-4.7a8 8 0 0 1 4.81-10.24l22.57-8.16a8 8 0 0 1 10.24 4.81z" transform="translate(-108.56 -36.06)"/>
      <path class="cls-3" transform="rotate(-19.86 181.282 645.56)" d="M335.31 337.77h6.33v31.42h-6.33z"/>
      <path class="cls-3" d="M290 374.53c2 5.49 11.19.21 8.7-6.69l6.11 16.7S292.59 390 290 374.53z" transform="translate(-108.56 -36.06)"/>
      <path class="cls-3" transform="rotate(-19.86 258.332 617.721)" d="M412.7 309.93h5.62v31.41h-5.62z"/>
      <path class="cls-3" transform="rotate(-20 226.597 656.782)" d="M380.66 362.68h8.5v4.83h-8.5z"/>
      <path class="cls-3" transform="rotate(-19.86 207.783 602.131)" d="M360.15 307.68h9.62v4.75h-9.62z"/>
      <path class="cls-3" transform="rotate(-19.86 267.535 614.417)" d="M422.22 318.61h5v7.5h-5z"/>
      <path class="cls-15" d="M367.34 185.07a7.87 7.87 0 0 0-3.34.45l-69.6 25.14c-5.29 1.91-6.65 5.15-4.81 10.24l35.34 97.81a7.87 7.87 0 0 0 1.79 2.85 8 8 0 0 1-6.91-5.26l-35.33-97.8a8 8 0 0 1 4.81-10.24l69.6-25.14a8 8 0 0 1 8.45 1.95z" transform="translate(-108.56 -36.06)"/>
      <path class="cls-15" d="M211.43 161.1l-25.35 54.03 7.89 21.84 39.61-84.42-22.15 8.55zM250.32 147.05l-49.48 105.47 10.06 27.86 4.87 4.56 53.22-113.43-8.37-23.17-10.3-1.29z"/>
      <path class="cls-15" d="M431.28 362.07a7.87 7.87 0 0 0-3.34.45l-69.6 25.14c-5.29 1.91-6.65 5.15-4.81 10.24l35.34 97.81a7.87 7.87 0 0 0 1.79 2.85 8 8 0 0 1-6.91-5.26l-35.33-97.8a8 8 0 0 1 4.81-10.24l69.6-25.14a8 8 0 0 1 8.45 1.95z" transform="translate(-108.56 -36.06)"/>
      <path class="cls-15" d="M275.38 338.1l-25.35 54.03 7.89 21.84 39.61-84.42-22.15 8.55zM314.27 324.05l-49.48 105.47 10.06 27.86 4.86 4.56 53.23-113.43-8.38-23.17-10.29-1.29z"/>
      <path class="cls-3" d="M415.25 331.36l3.4 9.41a8 8 0 0 1-4.81 10.23l-52.67 19a8 8 0 0 1-10.24-4.81l-3.4-9.41a8 8 0 0 0 10.24 4.81l52.67-19a8 8 0 0 0 4.81-10.23zM338.13 359.23l3.4 9.41a8 8 0 0 1-4.81 10.24L314.15 387a8 8 0 0 1-10.24-4.81l-3.4-9.41a8 8 0 0 0 10.24 4.81l22.57-8.16a8 8 0 0 0 4.81-10.2z" transform="translate(-108.56 -36.06)"/>
      <path class="cls-15" transform="rotate(-19.86 178.902 632.25)" d="M330.64 338.54h10.89v3.25h-10.89z"/>
      <path class="cls-15" d="M421.35 319.86a8 8 0 0 0-10.24-4.81l-1.88.68-1.7-4.7 1.88-.68a8 8 0 0 1 10.24 4.81z" transform="translate(-108.56 -36.06)"/>
    </g>
    <g id="lines">
      <rect class="cls-18" x="343.7" y="314.89" width="72" height="48" rx="8" ry="8" transform="rotate(-19.86 222.515 630.967)"/>
      <rect class="cls-18" x="297.63" y="337.32" width="40" height="48" rx="8" ry="8" transform="rotate(-19.86 160.425 653.389)"/>
      <path class="cls-18" d="M222.44 303.41l9.41-3.4M233.31 333.51l9.41-3.4"/>
      <path class="cls-18" d="M304.25 383.16l-1.88.68a8 8 0 0 1-10.24-4.84l-5.44-15a8 8 0 0 1 4.81-10.24l1.88-.68M419 341.71l1.88-.68a8 8 0 0 0 4.81-10.24l-5.44-15a8 8 0 0 0-10.25-4.86l-1.88.68" transform="translate(-108.56 -36.06)"/>
      <circle class="cls-18" cx="279.07" cy="375.25" r="4" transform="rotate(-19.86 121.866 667.332)"/>
      <path class="cls-18" d="M174.27 337.83l6.58-2.38"/>
      <rect class="cls-18" x="473.61" y="249.2" width="9.88" height="108.16" rx="4.94" ry="4.94" transform="rotate(-19.86 321.385 595.35)"/>
      <path class="cls-18" d="M490.61 351.18a49.39 49.39 0 0 1-33.39-92.43" transform="translate(-108.56 -36.06)"/>
      <path class="cls-18" d="M325.01 287.62l-9.24 3.34M322.3 280.09l-9.25 3.35M383.49 265.84l-7.74 2.8M381.25 259.65l-7.74 2.8"/>
      <circle class="cls-18" cx="500.22" cy="295.45" r="9.88" transform="rotate(-19.86 343.067 587.519)"/>
      <path class="cls-19" d="M225.16 310.94l9.4-3.4M230.6 325.98l9.4-3.39"/>
      <path class="cls-19" d="M296.1 360.59s-9.41 3.4-8.39 6.22M301.53 375.64s-9.41 3.4-10.42.58M410.84 319.14s9.41-3.4 10.42-.58M416.28 334.18s9.41-3.4 8.39-6.22" transform="translate(-108.56 -36.06)"/>
      <path class="cls-18" d="M262.99 280.26l-3.4-9.41M255.46 282.98l-3.4-9.41"/>
      <rect class="cls-18" x="299" y="191.84" width="90" height="120" rx="8" ry="8" transform="rotate(-19.86 186.802 543.914)"/>
      <path class="cls-18" d="M200.94 164.45l40.78 112.86M229.16 154.26l40.77 112.86M199.91 249.88l84.65-30.58M186.32 212.26l84.64-30.58"/>
      <path class="cls-19" d="M291.18 237.64l-84.65 30.58M215.05 159.35l40.77 112.86M243.26 149.16l40.78 112.86M186.83 169.55l40.78 112.86M277.59 200.02l-84.65 30.58M263.99 162.4l-84.64 30.58M256.56 327.24l-5.64 2.03M290.42 315l-30.1 10.88M303.59 310.25l-6.59 2.38M293.72 313.81l-.01.01M226.47 338.11l-22.58 8.15"/>
      <path class="cls-18" d="M271.77 328.12l3.39 9.41M279.29 325.4l3.4 9.41"/>
      <rect class="cls-18" x="362.87" y="368.66" width="90" height="120" rx="8" ry="8" transform="rotate(160 356.777 401.27)"/>
      <path class="cls-18" d="M333.81 443.93l-40.78-112.86M334.84 358.5l-84.64 30.58M348.43 396.12l-84.64 30.58"/>
      <path class="cls-19" d="M243.57 370.74l84.65-30.58M319.71 449.03l-40.78-112.86M291.49 459.22l-40.77-112.86M347.92 438.83l-40.77-112.86M257.17 408.36l84.64-30.58M270.76 445.98l84.64-30.58"/>
      <path class="cls-18" d="M305.59 454.12l-40.77-112.86"/>
    </g>
  </g>
</svg>
