<?xml version="1.0" standalone="no"?>
<!DOCTYPE svg PUBLIC "-//W3C//DTD SVG 20010904//EN"
 "http://www.w3.org/TR/2001/REC-SVG-20010904/DTD/svg10.dtd">
<svg version="1.0" xmlns="http://www.w3.org/2000/svg"
 width="602.000000pt" height="602.000000pt" viewBox="0 0 602.000000 602.000000"
 preserveAspectRatio="xMidYMid meet">
<metadata>
Created by potrace 1.11, written by Peter Selinger 2001-2013
</metadata>
<g transform="translate(0.000000,602.000000) scale(0.100000,-0.100000)"
fill="#000000" stroke="none">
<path d="M5179 5798 c-1 -2 -3 -190 -5 -418 -4 -448 -2 -428 -28 -513 -49
-166 -174 -312 -335 -393 -63 -31 -191 -68 -191 -55 -3 181 -9 249 -23 276 -9
17 -17 34 -17 38 0 5 -20 28 -44 52 -71 68 -129 85 -297 85 l-139 0 -18 29
c-43 74 -56 96 -56 101 -3 16 -124 166 -183 225 -88 90 -129 123 -230 191 -76
50 -250 144 -268 144 -4 0 -21 6 -38 14 -31 14 -116 44 -147 52 -8 2 -42 11
-75 20 -33 9 -69 17 -80 19 -11 1 -47 8 -81 14 -33 6 -96 14 -140 17 -102 8
-424 11 -424 4 0 -4 -10 -6 -22 -7 -37 -1 -142 -14 -149 -19 -4 -2 -23 -6 -42
-8 -92 -12 -282 -75 -414 -136 -436 -204 -723 -568 -808 -1024 -20 -107 -24
-156 -25 -291 0 -194 19 -313 77 -485 29 -83 110 -253 124 -258 5 -2 9 -8 9
-14 0 -6 21 -40 47 -77 73 -102 143 -177 246 -264 37 -31 62 -57 55 -58 -7 0
-20 -2 -28 -4 -8 -1 -28 -5 -45 -9 -16 -3 -64 -12 -105 -21 -41 -8 -84 -17
-95 -19 -11 -3 -22 -5 -25 -6 -3 -2 -8 -2 -11 -2 -4 1 -21 -3 -39 -8 -18 -5
-52 -12 -74 -15 -23 -4 -57 -10 -76 -15 -19 -5 -48 -11 -65 -14 -197 -34 -343
-74 -377 -104 -10 -8 -18 -12 -18 -9 0 8 -33 -18 -73 -58 -84 -85 -129 -196
-129 -315 1 -98 8 -132 42 -205 36 -74 91 -132 161 -167 48 -24 62 -30 91 -37
4 -1 22 -7 40 -12 51 -14 238 -29 238 -19 0 3 17 5 38 6 31 1 217 10 377 19
252 14 318 18 365 19 l55 1 30 -85 c33 -89 88 -206 153 -325 21 -38 60 -110
86 -160 27 -49 52 -94 56 -100 4 -5 24 -41 44 -80 44 -83 46 -87 110 -185 27
-41 67 -97 89 -125 53 -65 611 -622 658 -657 52 -38 144 -83 214 -103 78 -23
229 -27 314 -8 56 13 168 59 221 92 80 50 195 111 209 111 9 0 25 -6 36 -13
22 -14 81 -36 117 -42 13 -3 36 -7 52 -11 37 -8 149 -8 206 1 59 9 109 27 400
143 l245 99 17 -37 c47 -100 159 -167 282 -168 135 0 265 102 293 231 7 34 9
721 1 748 -5 22 -38 71 -57 87 -48 40 -80 44 -306 44 -131 0 -231 -5 -248 -11
-15 -6 -40 -13 -55 -16 -15 -3 -54 -12 -87 -20 -33 -9 -71 -18 -85 -21 -14 -2
-74 -17 -132 -32 l-107 -28 -344 345 c-319 321 -400 411 -383 429 4 3 152 7
329 8 177 1 332 4 343 7 75 19 161 94 192 166 14 32 21 151 22 342 0 24 5 27
53 38 54 11 149 33 252 57 33 8 70 17 83 19 226 50 379 268 349 495 -16 120
-68 211 -171 297 -33 28 -106 62 -162 77 -69 17 -119 19 -189 6 -27 -5 -66
-12 -85 -14 -55 -9 -94 -16 -107 -21 -7 -2 -15 1 -19 7 -6 10 -6 189 0 196 5
4 46 12 91 17 22 2 50 7 63 10 12 3 31 7 43 10 60 13 177 57 254 97 57 29 164
95 175 108 3 3 19 16 35 29 106 81 220 216 297 351 30 52 94 204 102 241 3 13
13 51 21 84 24 94 29 191 29 610 l1 390 -277 3 c-153 1 -279 1 -279 0z"/>
</g>
</svg>
